<svg xmlns="http://www.w3.org/2000/svg" width="196.43" height="99.427" viewBox="0 0 196.43 99.427"><defs><style>.a{opacity:0.16;}</style></defs><g class="a"><ellipse cx="4.066" cy="4.066" rx="4.066" ry="4.066"/><ellipse cx="4.066" cy="4.066" rx="4.066" ry="4.066" transform="translate(0 22.908)"/><ellipse cx="4.066" cy="4.066" rx="4.066" ry="4.066" transform="translate(0 45.815)"/><ellipse cx="4.066" cy="4.066" rx="4.066" ry="4.066" transform="translate(0 68.723)"/><ellipse cx="4.066" cy="4.066" rx="4.066" ry="4.066" transform="translate(0 91.295)"/><ellipse cx="4.066" cy="4.066" rx="4.066" ry="4.066" transform="translate(53.805)"/><ellipse cx="4.066" cy="4.066" rx="4.066" ry="4.066" transform="translate(53.805 22.908)"/><ellipse cx="4.066" cy="4.066" rx="4.066" ry="4.066" transform="translate(53.805 45.815)"/><ellipse cx="4.066" cy="4.066" rx="4.066" ry="4.066" transform="translate(53.805 68.723)"/><ellipse cx="4.066" cy="4.066" rx="4.066" ry="4.066" transform="translate(53.805 91.295)"/><ellipse cx="4.066" cy="4.066" rx="4.066" ry="4.066" transform="translate(26.902)"/><ellipse cx="4.066" cy="4.066" rx="4.066" ry="4.066" transform="translate(26.902 22.908)"/><ellipse cx="4.066" cy="4.066" rx="4.066" ry="4.066" transform="translate(26.902 45.815)"/><ellipse cx="4.066" cy="4.066" rx="4.066" ry="4.066" transform="translate(26.902 68.723)"/><ellipse cx="4.066" cy="4.066" rx="4.066" ry="4.066" transform="translate(26.902 91.295)"/><ellipse cx="4.066" cy="4.066" rx="4.066" ry="4.066" transform="translate(80.707)"/><ellipse cx="4.066" cy="4.066" rx="4.066" ry="4.066" transform="translate(80.707 22.908)"/><ellipse cx="4.066" cy="4.066" rx="4.066" ry="4.066" transform="translate(80.707 45.815)"/><ellipse cx="4.066" cy="4.066" rx="4.066" ry="4.066" transform="translate(80.707 68.723)"/><ellipse cx="4.066" cy="4.066" rx="4.066" ry="4.066" transform="translate(80.707 91.295)"/><ellipse cx="4.066" cy="4.066" rx="4.066" ry="4.066" transform="translate(107.591)"/><ellipse cx="4.066" cy="4.066" rx="4.066" ry="4.066" transform="translate(107.591 22.908)"/><ellipse cx="4.066" cy="4.066" rx="4.066" ry="4.066" transform="translate(107.591 45.815)"/><ellipse cx="4.066" cy="4.066" rx="4.066" ry="4.066" transform="translate(107.591 68.723)"/><ellipse cx="4.066" cy="4.066" rx="4.066" ry="4.066" transform="translate(107.591 91.295)"/><ellipse cx="4.066" cy="4.066" rx="4.066" ry="4.066" transform="translate(161.395)"/><ellipse cx="4.066" cy="4.066" rx="4.066" ry="4.066" transform="translate(161.395 22.908)"/><ellipse cx="4.066" cy="4.066" rx="4.066" ry="4.066" transform="translate(161.395 45.815)"/><ellipse cx="4.066" cy="4.066" rx="4.066" ry="4.066" transform="translate(161.395 68.723)"/><ellipse cx="4.066" cy="4.066" rx="4.066" ry="4.066" transform="translate(161.395 91.295)"/><ellipse cx="4.066" cy="4.066" rx="4.066" ry="4.066" transform="translate(134.493)"/><ellipse cx="4.066" cy="4.066" rx="4.066" ry="4.066" transform="translate(134.493 22.908)"/><ellipse cx="4.066" cy="4.066" rx="4.066" ry="4.066" transform="translate(134.493 45.815)"/><ellipse cx="4.066" cy="4.066" rx="4.066" ry="4.066" transform="translate(134.493 68.723)"/><ellipse cx="4.066" cy="4.066" rx="4.066" ry="4.066" transform="translate(134.493 91.295)"/><ellipse cx="4.066" cy="4.066" rx="4.066" ry="4.066" transform="translate(188.298)"/><ellipse cx="4.066" cy="4.066" rx="4.066" ry="4.066" transform="translate(188.298 22.908)"/><ellipse cx="4.066" cy="4.066" rx="4.066" ry="4.066" transform="translate(188.298 45.815)"/><ellipse cx="4.066" cy="4.066" rx="4.066" ry="4.066" transform="translate(188.298 68.723)"/><ellipse cx="4.066" cy="4.066" rx="4.066" ry="4.066" transform="translate(188.298 91.295)"/></g></svg>